<?xml version="1.0" encoding="iso-8859-1"?>
<!-- Generator: Adobe Illustrator 18.0.0, SVG Export Plug-In . SVG Version: 6.00 Build 0)  -->
<!DOCTYPE svg PUBLIC "-//W3C//DTD SVG 1.1//EN" "http://www.w3.org/Graphics/SVG/1.1/DTD/svg11.dtd">
<svg version="1.1" id="Capa_1" xmlns="http://www.w3.org/2000/svg" xmlns:xlink="http://www.w3.org/1999/xlink" x="0px" y="0px"
	 viewBox="0 0 56.515 56.515" style="enable-background:new 0 0 56.515 56.515;" xml:space="preserve">
<g>
	<path d="M20.177,19.801c-0.444-0.331-1.07-0.235-1.398,0.209l-2.379,3.215c-0.328,0.443-0.235,1.07,0.209,1.398l3.215,2.38
		c0.173,0.128,0.382,0.196,0.595,0.196c0.049,0,0.099-0.004,0.147-0.011c0.263-0.039,0.499-0.182,0.656-0.395l2.379-3.216
		c0.329-0.444,0.235-1.07-0.209-1.398L20.177,19.801z"/>
	<path d="M50.346,22.648l-3.923-0.783c-0.259-0.051-0.529,0.001-0.75,0.148s-0.374,0.376-0.426,0.637l-0.783,3.923
		c-0.108,0.541,0.243,1.067,0.785,1.176l3.923,0.783c0.065,0.014,0.132,0.02,0.196,0.02c0.467,0,0.885-0.329,0.979-0.805
		l0.783-3.923c0.052-0.26-0.001-0.529-0.148-0.75S50.606,22.7,50.346,22.648z"/>
	<path d="M38.546,24.459c-0.15-0.532-0.706-0.843-1.233-0.69l-3.85,1.087c-0.532,0.149-0.841,0.702-0.69,1.233l1.087,3.85
		c0.124,0.44,0.525,0.729,0.961,0.729c0.091,0,0.182-0.012,0.272-0.038l3.85-1.087c0.532-0.149,0.841-0.702,0.69-1.233
		L38.546,24.459z"/>
	<path d="M56.515,27.248c0-1.467-0.852-2.774-2.535-3.893C53.993,23.202,54,23.051,54,22.901c0-3.032-2.468-5.5-5.5-5.5
		c-0.831,0-1.636,0.188-2.375,0.553c-0.995-1.563-2.732-2.553-4.625-2.553c-1.043,0-2.048,0.294-2.917,0.843
		c-0.932-1.043-2.23-1.704-3.625-1.823l-2.483-2.949c-0.17-0.203-0.415-0.33-0.679-0.353c-0.162-0.02-0.315,0.017-0.458,0.078
		c-0.096,0.041-0.191,0.085-0.272,0.154l-1.789,1.506l-0.688,0.578c-0.205-0.023-0.399-0.034-0.589-0.034
		c-1.505,0-2.936,0.571-4.039,1.591c-0.765-0.389-1.602-0.591-2.461-0.591c-1.565,0-3.05,0.686-4.083,1.843
		c-0.869-0.549-1.874-0.843-2.917-0.843c-1.564,0-3.035,0.675-4.069,1.836L5.895,15.56c-0.517-0.194-1.094,0.072-1.284,0.591
		L3.51,19.125C2.534,20.152,2,21.484,2,22.901c0,0.262,0.022,0.523,0.068,0.799C0.695,24.74,0,25.93,0,27.248
		c0,3.784,3.073,6.883,7.011,7.129l2.236,2.142c1.208,1.158,1.749,1.856,2.567,2.915c0.271,0.351,0.568,0.735,0.926,1.183
		c2.678,3.354,5.353,4.784,8.944,4.784h13.583c3.592,0,6.267-1.431,8.944-4.784c0.356-0.446,0.654-0.831,0.925-1.182
		c0.819-1.059,1.36-1.758,2.568-2.916l2.238-2.145C53.72,34.127,56.515,31.144,56.515,27.248z M49.475,32.399
		c-3.286-0.015-5.96-1.808-5.96-3.998c0-0.553-0.447-1-1-1s-1,0.447-1,1c0,2.168-2.748,4-6,4s-6-1.832-6-4c0-0.553-0.447-1-1-1
		s-1,0.447-1,1c0,2.168-2.748,4-6,4s-6-1.832-6-4c0-0.553-0.447-1-1-1s-1,0.447-1,1c0,2.168-2.748,4-6.077,4
		C4.439,32.401,2,30.09,2,27.248c0-0.768,0.583-1.532,1.733-2.272c0.37-0.238,0.541-0.69,0.421-1.114
		c-0.062-0.217-0.099-0.408-0.123-0.589l4.646,1.718c0.114,0.043,0.231,0.063,0.347,0.063c0.406,0,0.789-0.25,0.938-0.653
		l2.04-5.516c0.052-0.138,0.064-0.284,0.052-0.428c0.648-0.661,1.517-1.055,2.447-1.055c0.904,0,1.764,0.35,2.422,0.983
		c0.222,0.212,0.524,0.313,0.834,0.271c0.305-0.043,0.572-0.224,0.727-0.49c0.638-1.104,1.767-1.764,3.018-1.764
		c0.73,0,1.438,0.233,2.047,0.675c0.431,0.312,1.028,0.232,1.363-0.179c0.76-0.937,1.865-1.474,3.037-1.49l2.514,2.987
		c0.197,0.235,0.48,0.356,0.766,0.356c0.227,0,0.455-0.077,0.643-0.234l2.5-2.104c0.044-0.003,0.086-0.011,0.13-0.011
		c1.251,0,2.38,0.659,3.018,1.764c0.154,0.267,0.422,0.447,0.727,0.49c0.311,0.047,0.612-0.058,0.834-0.271
		c0.658-0.634,1.518-0.983,2.422-0.983c1.462,0,2.78,0.935,3.279,2.324c0.109,0.304,0.357,0.535,0.668,0.624
		c0.308,0.088,0.642,0.021,0.896-0.179c0.634-0.503,1.38-0.77,2.157-0.77c1.93,0,3.5,1.57,3.5,3.5c0,0.24-0.027,0.483-0.084,0.744
		c-0.094,0.425,0.1,0.861,0.477,1.079c1.408,0.813,2.122,1.661,2.122,2.523C54.515,30.171,52.344,32.385,49.475,32.399z"/>
</g>
<g>
</g>
<g>
</g>
<g>
</g>
<g>
</g>
<g>
</g>
<g>
</g>
<g>
</g>
<g>
</g>
<g>
</g>
<g>
</g>
<g>
</g>
<g>
</g>
<g>
</g>
<g>
</g>
<g>
</g>
</svg>
